<svg xmlns="http://www.w3.org/2000/svg" xmlns:xlink="http://www.w3.org/1999/xlink" width="500" zoomAndPan="magnify" viewBox="0 0 375 374.999991" height="500" preserveAspectRatio="xMidYMid meet" version="1.0"><path fill="#ffffb7" d="M 367.644531 328.007812 L 251.835938 365.476562 L 251.835938 101.191406 L 367.644531 63.71875 Z M 244.480469 364.863281 L 141.53125 319.101562 L 141.53125 55.136719 L 244.480469 100.898438 Z M 134.179688 318.71875 L 7.355469 355.195312 L 7.355469 90.847656 L 134.179688 54.34375 Z M 373.476562 55.691406 C 372.539062 54.988281 371.308594 54.785156 370.195312 55.164062 L 248.378906 94.570312 L 139.363281 46.113281 C 139.363281 46.113281 139.335938 46.113281 139.335938 46.113281 C 139.21875 46.054688 139.128906 46.054688 139.011719 46.023438 C 138.691406 45.90625 138.339844 45.820312 137.988281 45.820312 C 137.957031 45.820312 137.929688 45.789062 137.871094 45.789062 C 137.722656 45.789062 137.605469 45.847656 137.460938 45.878906 C 137.253906 45.878906 137.050781 45.878906 136.84375 45.9375 L 2.667969 84.550781 C 1.085938 84.988281 0 86.425781 0 88.066406 L 0 360.085938 C 0 361.230469 0.558594 362.3125 1.464844 363.015625 C 2.402344 363.71875 3.574219 363.925781 4.6875 363.601562 L 137.605469 325.398438 L 246.679688 373.886719 C 246.679688 373.886719 246.679688 373.886719 246.707031 373.886719 C 247.148438 374.089844 247.644531 374.207031 248.171875 374.207031 C 248.554688 374.207031 248.933594 374.148438 249.285156 374.03125 L 372.449219 334.160156 C 373.972656 333.691406 375 332.253906 375 330.671875 L 375 58.652344 C 375 57.480469 374.441406 56.367188 373.476562 55.691406 " fill-opacity="1" fill-rule="nonzero"/></svg>