<svg xmlns="http://www.w3.org/2000/svg" xmlns:xlink="http://www.w3.org/1999/xlink" width="500" zoomAndPan="magnify" viewBox="0 0 375 374.999991" height="500" preserveAspectRatio="xMidYMid meet" version="1.0"><defs><clipPath id="641ecced8b"><path d="M 223 77 L 371.765625 77 L 371.765625 227 L 223 227 Z M 223 77 " clip-rule="nonzero"/></clipPath><clipPath id="3ec07b8f40"><path d="M 3.515625 106 L 117 106 L 117 248 L 3.515625 248 Z M 3.515625 106 " clip-rule="nonzero"/></clipPath></defs><path fill="#ffffb7" d="M 318.636719 375 L 315.097656 375 C 314.402344 375 313.707031 374.964844 313.015625 374.898438 C 312.320312 374.828125 311.632812 374.726562 310.953125 374.59375 C 310.269531 374.457031 309.597656 374.289062 308.929688 374.085938 C 308.265625 373.882812 307.609375 373.648438 306.96875 373.382812 C 306.324219 373.117188 305.695312 372.820312 305.082031 372.492188 C 304.46875 372.164062 303.875 371.808594 303.292969 371.421875 C 302.714844 371.035156 302.15625 370.621094 301.621094 370.183594 C 301.082031 369.742188 300.566406 369.273438 300.074219 368.78125 C 299.582031 368.292969 299.117188 367.777344 298.675781 367.238281 C 298.234375 366.703125 297.820312 366.144531 297.433594 365.566406 C 297.046875 364.988281 296.691406 364.394531 296.363281 363.78125 C 296.035156 363.167969 295.738281 362.539062 295.472656 361.894531 C 295.203125 361.253906 294.96875 360.601562 294.769531 359.933594 C 294.566406 359.269531 294.398438 358.597656 294.261719 357.914062 C 294.125 357.234375 294.023438 356.546875 293.957031 355.855469 C 293.886719 355.164062 293.855469 354.46875 293.855469 353.773438 L 293.855469 222.878906 C 293.855469 222.40625 293.945312 221.957031 294.125 221.523438 C 294.304688 221.089844 294.558594 220.707031 294.890625 220.375 C 295.222656 220.042969 295.605469 219.789062 296.039062 219.609375 C 296.472656 219.429688 296.925781 219.339844 297.394531 219.339844 C 297.863281 219.339844 298.316406 219.429688 298.75 219.609375 C 299.183594 219.789062 299.566406 220.042969 299.898438 220.375 C 300.230469 220.707031 300.484375 221.089844 300.664062 221.523438 C 300.84375 221.957031 300.933594 222.40625 300.933594 222.878906 L 300.933594 353.773438 C 300.933594 354.703125 301.023438 355.621094 301.207031 356.535156 C 301.386719 357.445312 301.65625 358.332031 302.011719 359.1875 C 302.367188 360.046875 302.804688 360.863281 303.320312 361.636719 C 303.839844 362.40625 304.425781 363.121094 305.082031 363.78125 C 305.738281 364.4375 306.457031 365.023438 307.230469 365.539062 C 308 366.054688 308.816406 366.492188 309.675781 366.847656 C 310.535156 367.203125 311.421875 367.472656 312.332031 367.652344 C 313.246094 367.832031 314.167969 367.925781 315.097656 367.925781 L 318.636719 367.925781 C 319.566406 367.925781 320.488281 367.832031 321.398438 367.652344 C 322.3125 367.472656 323.195312 367.203125 324.054688 366.847656 C 324.914062 366.492188 325.730469 366.054688 326.503906 365.539062 C 327.277344 365.023438 327.992188 364.4375 328.652344 363.78125 C 329.308594 363.121094 329.894531 362.40625 330.410156 361.636719 C 330.929688 360.863281 331.363281 360.046875 331.71875 359.1875 C 332.078125 358.332031 332.34375 357.445312 332.527344 356.535156 C 332.707031 355.621094 332.796875 354.703125 332.796875 353.773438 L 332.796875 222.878906 C 332.796875 222.40625 332.886719 221.957031 333.066406 221.523438 C 333.246094 221.089844 333.503906 220.707031 333.835938 220.375 C 334.167969 220.042969 334.550781 219.789062 334.984375 219.609375 C 335.417969 219.429688 335.871094 219.339844 336.339844 219.339844 C 336.808594 219.339844 337.261719 219.429688 337.695312 219.609375 C 338.128906 219.789062 338.511719 220.042969 338.84375 220.375 C 339.175781 220.707031 339.429688 221.089844 339.609375 221.523438 C 339.789062 221.957031 339.878906 222.40625 339.878906 222.878906 L 339.878906 353.773438 C 339.878906 354.46875 339.84375 355.164062 339.777344 355.855469 C 339.710938 356.546875 339.605469 357.234375 339.472656 357.914062 C 339.335938 358.597656 339.167969 359.269531 338.964844 359.933594 C 338.761719 360.601562 338.527344 361.253906 338.261719 361.898438 C 337.996094 362.539062 337.699219 363.167969 337.371094 363.78125 C 337.042969 364.394531 336.6875 364.988281 336.300781 365.566406 C 335.914062 366.144531 335.5 366.703125 335.058594 367.238281 C 334.617188 367.777344 334.148438 368.292969 333.65625 368.78125 C 333.164062 369.273438 332.652344 369.742188 332.113281 370.183594 C 331.574219 370.621094 331.015625 371.035156 330.4375 371.421875 C 329.859375 371.808594 329.265625 372.164062 328.652344 372.492188 C 328.035156 372.820312 327.410156 373.117188 326.765625 373.382812 C 326.125 373.648438 325.46875 373.882812 324.804688 374.085938 C 324.136719 374.289062 323.464844 374.457031 322.78125 374.59375 C 322.097656 374.726562 321.410156 374.828125 320.71875 374.898438 C 320.027344 374.964844 319.332031 375 318.636719 375 Z M 318.636719 375 " fill-opacity="1" fill-rule="nonzero"/><path fill="#ffffb7" d="M 279.691406 375 L 276.152344 375 C 275.457031 375 274.761719 374.964844 274.070312 374.898438 C 273.378906 374.828125 272.691406 374.726562 272.007812 374.59375 C 271.324219 374.457031 270.652344 374.289062 269.984375 374.085938 C 269.320312 373.882812 268.664062 373.648438 268.023438 373.382812 C 267.378906 373.117188 266.75 372.820312 266.136719 372.492188 C 265.523438 372.164062 264.929688 371.808594 264.351562 371.421875 C 263.769531 371.035156 263.214844 370.621094 262.675781 370.183594 C 262.136719 369.742188 261.621094 369.273438 261.128906 368.78125 C 260.640625 368.292969 260.171875 367.777344 259.730469 367.238281 C 259.289062 366.703125 258.875 366.144531 258.488281 365.566406 C 258.101562 364.988281 257.746094 364.394531 257.417969 363.78125 C 257.089844 363.167969 256.792969 362.539062 256.527344 361.898438 C 256.257812 361.253906 256.027344 360.601562 255.824219 359.933594 C 255.621094 359.269531 255.453125 358.597656 255.316406 357.914062 C 255.179688 357.234375 255.078125 356.546875 255.011719 355.855469 C 254.941406 355.164062 254.910156 354.46875 254.910156 353.773438 L 254.910156 222.878906 C 254.910156 222.40625 255 221.957031 255.179688 221.523438 C 255.359375 221.089844 255.613281 220.707031 255.945312 220.375 C 256.277344 220.042969 256.660156 219.789062 257.09375 219.609375 C 257.527344 219.429688 257.980469 219.339844 258.449219 219.339844 C 258.917969 219.339844 259.371094 219.429688 259.804688 219.609375 C 260.238281 219.789062 260.621094 220.042969 260.953125 220.375 C 261.285156 220.707031 261.539062 221.089844 261.71875 221.523438 C 261.898438 221.957031 261.988281 222.40625 261.988281 222.878906 L 261.988281 353.773438 C 261.988281 354.703125 262.082031 355.621094 262.261719 356.535156 C 262.445312 357.445312 262.710938 358.332031 263.066406 359.1875 C 263.421875 360.046875 263.859375 360.863281 264.375 361.636719 C 264.894531 362.40625 265.480469 363.121094 266.136719 363.78125 C 266.796875 364.4375 267.511719 365.023438 268.285156 365.539062 C 269.058594 366.054688 269.871094 366.492188 270.730469 366.847656 C 271.589844 367.203125 272.476562 367.472656 273.390625 367.652344 C 274.300781 367.832031 275.222656 367.925781 276.152344 367.925781 L 279.691406 367.925781 C 280.621094 367.925781 281.542969 367.832031 282.453125 367.652344 C 283.367188 367.472656 284.253906 367.203125 285.113281 366.847656 C 285.96875 366.492188 286.785156 366.054688 287.558594 365.539062 C 288.332031 365.023438 289.046875 364.4375 289.707031 363.78125 C 290.363281 363.121094 290.949219 362.40625 291.46875 361.636719 C 291.984375 360.863281 292.421875 360.046875 292.777344 359.1875 C 293.132812 358.332031 293.398438 357.445312 293.582031 356.535156 C 293.761719 355.621094 293.855469 354.703125 293.855469 353.773438 L 293.855469 229.953125 C 293.855469 229.484375 293.945312 229.03125 294.125 228.597656 C 294.304688 228.164062 294.558594 227.78125 294.890625 227.453125 C 295.222656 227.121094 295.605469 226.863281 296.039062 226.683594 C 296.472656 226.503906 296.925781 226.414062 297.394531 226.414062 C 297.863281 226.414062 298.316406 226.503906 298.75 226.683594 C 299.183594 226.863281 299.566406 227.121094 299.898438 227.453125 C 300.230469 227.78125 300.484375 228.164062 300.664062 228.597656 C 300.84375 229.03125 300.933594 229.484375 300.933594 229.953125 L 300.933594 353.773438 C 300.933594 354.46875 300.902344 355.164062 300.832031 355.855469 C 300.765625 356.546875 300.664062 357.234375 300.527344 357.914062 C 300.390625 358.597656 300.222656 359.269531 300.019531 359.933594 C 299.816406 360.601562 299.582031 361.253906 299.316406 361.894531 C 299.050781 362.539062 298.753906 363.167969 298.425781 363.78125 C 298.097656 364.394531 297.742188 364.988281 297.355469 365.566406 C 296.96875 366.144531 296.554688 366.703125 296.113281 367.238281 C 295.671875 367.777344 295.203125 368.292969 294.710938 368.78125 C 294.222656 369.273438 293.707031 369.742188 293.167969 370.183594 C 292.628906 370.621094 292.074219 371.035156 291.492188 371.421875 C 290.914062 371.808594 290.320312 372.164062 289.707031 372.492188 C 289.09375 372.820312 288.464844 373.117188 287.820312 373.382812 C 287.179688 373.648438 286.523438 373.882812 285.859375 374.085938 C 285.191406 374.289062 284.519531 374.457031 283.835938 374.59375 C 283.152344 374.726562 282.464844 374.828125 281.773438 374.898438 C 281.082031 374.964844 280.386719 375 279.691406 375 Z M 279.691406 375 " fill-opacity="1" fill-rule="nonzero"/><path fill="#ffffb7" d="M 297.394531 63.679688 C 296.351562 63.679688 295.308594 63.628906 294.269531 63.527344 C 293.234375 63.421875 292.203125 63.269531 291.179688 63.066406 C 290.15625 62.863281 289.144531 62.609375 288.144531 62.308594 C 287.144531 62.003906 286.164062 61.65625 285.199219 61.253906 C 284.234375 60.855469 283.292969 60.410156 282.375 59.917969 C 281.453125 59.429688 280.558594 58.894531 279.691406 58.3125 C 278.824219 57.734375 277.988281 57.113281 277.179688 56.453125 C 276.375 55.789062 275.601562 55.089844 274.863281 54.355469 C 274.125 53.617188 273.425781 52.84375 272.761719 52.039062 C 272.101562 51.230469 271.480469 50.394531 270.898438 49.527344 C 270.320312 48.660156 269.785156 47.769531 269.292969 46.847656 C 268.800781 45.929688 268.355469 44.988281 267.957031 44.023438 C 267.554688 43.0625 267.207031 42.078125 266.902344 41.082031 C 266.597656 40.085938 266.347656 39.074219 266.140625 38.050781 C 265.9375 37.027344 265.785156 36 265.683594 34.960938 C 265.582031 33.921875 265.53125 32.882812 265.53125 31.839844 C 265.53125 30.796875 265.582031 29.757812 265.683594 28.71875 C 265.785156 27.679688 265.9375 26.652344 266.140625 25.628906 C 266.347656 24.605469 266.597656 23.59375 266.902344 22.597656 C 267.207031 21.597656 267.554688 20.617188 267.957031 19.65625 C 268.355469 18.691406 268.800781 17.75 269.292969 16.832031 C 269.785156 15.910156 270.320312 15.015625 270.898438 14.152344 C 271.480469 13.285156 272.101562 12.445312 272.761719 11.640625 C 273.425781 10.835938 274.125 10.0625 274.863281 9.324219 C 275.601562 8.589844 276.375 7.890625 277.179688 7.226562 C 277.988281 6.566406 278.824219 5.945312 279.691406 5.367188 C 280.558594 4.785156 281.453125 4.25 282.375 3.757812 C 283.292969 3.269531 284.234375 2.824219 285.199219 2.421875 C 286.164062 2.023438 287.144531 1.671875 288.144531 1.371094 C 289.144531 1.066406 290.15625 0.816406 291.179688 0.613281 C 292.203125 0.410156 293.234375 0.253906 294.269531 0.152344 C 295.308594 0.0507812 296.351562 0 297.394531 0 C 298.4375 0 299.480469 0.0507812 300.515625 0.152344 C 301.554688 0.253906 302.585938 0.410156 303.609375 0.613281 C 304.632812 0.816406 305.644531 1.066406 306.644531 1.371094 C 307.640625 1.671875 308.625 2.023438 309.589844 2.421875 C 310.550781 2.824219 311.496094 3.269531 312.414062 3.757812 C 313.335938 4.25 314.230469 4.785156 315.097656 5.367188 C 315.964844 5.945312 316.800781 6.566406 317.609375 7.226562 C 318.414062 7.890625 319.1875 8.589844 319.925781 9.324219 C 320.664062 10.0625 321.363281 10.835938 322.027344 11.640625 C 322.6875 12.445312 323.308594 13.285156 323.886719 14.152344 C 324.46875 15.015625 325.003906 15.910156 325.496094 16.832031 C 325.988281 17.75 326.433594 18.691406 326.832031 19.65625 C 327.230469 20.617188 327.582031 21.597656 327.886719 22.597656 C 328.1875 23.59375 328.441406 24.605469 328.644531 25.628906 C 328.847656 26.652344 329.003906 27.679688 329.105469 28.71875 C 329.207031 29.757812 329.257812 30.796875 329.257812 31.839844 C 329.257812 32.882812 329.203125 33.921875 329.097656 34.957031 C 328.996094 35.996094 328.839844 37.023438 328.632812 38.046875 C 328.429688 39.066406 328.175781 40.078125 327.871094 41.074219 C 327.566406 42.070312 327.214844 43.050781 326.8125 44.011719 C 326.414062 44.976562 325.96875 45.917969 325.476562 46.835938 C 324.984375 47.753906 324.445312 48.644531 323.867188 49.511719 C 323.285156 50.378906 322.664062 51.214844 322.003906 52.019531 C 321.34375 52.824219 320.640625 53.597656 319.90625 54.332031 C 319.167969 55.070312 318.394531 55.769531 317.589844 56.429688 C 316.785156 57.089844 315.945312 57.710938 315.082031 58.292969 C 314.214844 58.871094 313.320312 59.40625 312.402344 59.898438 C 311.480469 60.390625 310.539062 60.835938 309.578125 61.238281 C 308.613281 61.636719 307.632812 61.988281 306.636719 62.292969 C 305.636719 62.597656 304.628906 62.851562 303.605469 63.054688 C 302.582031 63.261719 301.554688 63.414062 300.515625 63.519531 C 299.476562 63.625 298.4375 63.675781 297.394531 63.679688 Z M 297.394531 7.074219 C 296.582031 7.074219 295.773438 7.113281 294.964844 7.195312 C 294.15625 7.273438 293.355469 7.394531 292.558594 7.550781 C 291.761719 7.710938 290.976562 7.90625 290.199219 8.140625 C 289.421875 8.378906 288.660156 8.648438 287.910156 8.960938 C 287.160156 9.269531 286.425781 9.617188 285.710938 10 C 284.996094 10.382812 284.300781 10.796875 283.625 11.25 C 282.949219 11.699219 282.300781 12.183594 281.671875 12.695312 C 281.042969 13.210938 280.445312 13.753906 279.871094 14.328125 C 279.296875 14.902344 278.75 15.503906 278.238281 16.128906 C 277.722656 16.757812 277.238281 17.40625 276.789062 18.082031 C 276.335938 18.753906 275.921875 19.449219 275.539062 20.164062 C 275.15625 20.882812 274.808594 21.613281 274.496094 22.363281 C 274.1875 23.113281 273.914062 23.875 273.679688 24.652344 C 273.441406 25.425781 273.246094 26.214844 273.085938 27.007812 C 272.929688 27.804688 272.808594 28.605469 272.730469 29.414062 C 272.652344 30.21875 272.609375 31.027344 272.609375 31.839844 C 272.609375 32.652344 272.652344 33.460938 272.730469 34.265625 C 272.808594 35.074219 272.929688 35.875 273.085938 36.671875 C 273.246094 37.464844 273.441406 38.253906 273.679688 39.027344 C 273.914062 39.804688 274.1875 40.566406 274.496094 41.316406 C 274.808594 42.066406 275.15625 42.796875 275.539062 43.511719 C 275.921875 44.230469 276.335938 44.921875 276.789062 45.597656 C 277.238281 46.273438 277.722656 46.921875 278.238281 47.550781 C 278.75 48.175781 279.296875 48.777344 279.871094 49.351562 C 280.445312 49.925781 281.042969 50.46875 281.671875 50.984375 C 282.300781 51.496094 282.949219 51.980469 283.625 52.429688 C 284.300781 52.878906 284.996094 53.296875 285.710938 53.679688 C 286.425781 54.0625 287.160156 54.410156 287.910156 54.71875 C 288.660156 55.027344 289.421875 55.300781 290.199219 55.539062 C 290.976562 55.773438 291.761719 55.96875 292.558594 56.128906 C 293.355469 56.285156 294.15625 56.40625 294.964844 56.484375 C 295.773438 56.5625 296.582031 56.605469 297.394531 56.605469 C 298.207031 56.605469 299.015625 56.5625 299.824219 56.484375 C 300.632812 56.40625 301.433594 56.285156 302.230469 56.128906 C 303.023438 55.96875 303.8125 55.773438 304.589844 55.539062 C 305.363281 55.300781 306.128906 55.027344 306.878906 54.71875 C 307.628906 54.410156 308.359375 54.0625 309.078125 53.679688 C 309.792969 53.296875 310.488281 52.878906 311.164062 52.429688 C 311.839844 51.980469 312.488281 51.496094 313.117188 50.984375 C 313.742188 50.46875 314.34375 49.925781 314.917969 49.351562 C 315.492188 48.777344 316.035156 48.175781 316.550781 47.550781 C 317.066406 46.921875 317.550781 46.273438 318 45.597656 C 318.453125 44.921875 318.867188 44.230469 319.25 43.511719 C 319.632812 42.796875 319.980469 42.066406 320.289062 41.316406 C 320.601562 40.566406 320.875 39.804688 321.109375 39.027344 C 321.347656 38.253906 321.542969 37.464844 321.699219 36.671875 C 321.859375 35.875 321.976562 35.074219 322.058594 34.265625 C 322.136719 33.460938 322.175781 32.652344 322.175781 31.839844 C 322.175781 31.027344 322.136719 30.21875 322.058594 29.414062 C 321.976562 28.605469 321.859375 27.804688 321.699219 27.007812 C 321.542969 26.214844 321.347656 25.425781 321.109375 24.652344 C 320.875 23.875 320.601562 23.113281 320.289062 22.363281 C 319.980469 21.613281 319.632812 20.882812 319.25 20.164062 C 318.867188 19.449219 318.453125 18.753906 318 18.082031 C 317.550781 17.40625 317.066406 16.757812 316.550781 16.128906 C 316.035156 15.503906 315.492188 14.902344 314.917969 14.328125 C 314.34375 13.753906 313.742188 13.210938 313.117188 12.695312 C 312.488281 12.183594 311.835938 11.699219 311.164062 11.25 C 310.488281 10.796875 309.792969 10.382812 309.078125 10 C 308.359375 9.617188 307.628906 9.269531 306.878906 8.960938 C 306.128906 8.648438 305.363281 8.378906 304.589844 8.140625 C 303.8125 7.90625 303.023438 7.710938 302.230469 7.550781 C 301.433594 7.394531 300.632812 7.273438 299.824219 7.195312 C 299.015625 7.113281 298.207031 7.074219 297.394531 7.074219 Z M 297.394531 7.074219 " fill-opacity="1" fill-rule="nonzero"/><g clip-path="url(#641ecced8b)"><path fill="#ffffb7" d="M 336.339844 226.414062 C 335.871094 226.414062 335.417969 226.324219 334.984375 226.144531 C 334.550781 225.964844 334.167969 225.710938 333.835938 225.378906 C 333.503906 225.046875 333.246094 224.664062 333.066406 224.230469 C 332.886719 223.796875 332.796875 223.347656 332.796875 222.878906 L 332.796875 123.820312 C 332.796875 123.351562 332.886719 122.898438 333.066406 122.46875 C 333.246094 122.035156 333.503906 121.652344 333.835938 121.320312 C 334.167969 120.988281 334.550781 120.730469 334.984375 120.550781 C 335.417969 120.371094 335.871094 120.28125 336.339844 120.28125 C 336.808594 120.28125 337.261719 120.371094 337.695312 120.550781 C 338.128906 120.730469 338.511719 120.988281 338.84375 121.320312 C 339.175781 121.652344 339.429688 122.035156 339.609375 122.46875 C 339.789062 122.898438 339.878906 123.351562 339.878906 123.820312 L 339.878906 219.339844 C 340.730469 219.234375 341.574219 219.085938 342.414062 218.902344 C 343.253906 218.71875 344.082031 218.496094 344.898438 218.238281 C 345.714844 217.980469 346.519531 217.683594 347.3125 217.351562 C 348.101562 217.019531 348.878906 216.652344 349.636719 216.25 C 350.394531 215.847656 351.132812 215.410156 351.847656 214.941406 C 352.566406 214.472656 353.261719 213.96875 353.933594 213.4375 C 354.609375 212.90625 355.253906 212.34375 355.875 211.75 C 356.496094 211.160156 357.089844 210.542969 357.65625 209.898438 C 358.21875 209.25 358.753906 208.582031 359.257812 207.886719 C 359.765625 207.195312 360.234375 206.476562 360.675781 205.742188 C 361.113281 205.003906 361.519531 204.25 361.890625 203.476562 C 362.257812 202.703125 362.59375 201.914062 362.890625 201.109375 C 363.191406 200.304688 363.453125 199.492188 363.675781 198.664062 C 363.902344 197.835938 364.089844 197 364.238281 196.15625 C 364.386719 195.308594 364.496094 194.460938 364.566406 193.605469 C 364.636719 192.75 364.667969 191.894531 364.664062 191.039062 L 364.664062 123.820312 C 364.660156 122.546875 364.59375 121.277344 364.46875 120.007812 C 364.339844 118.742188 364.152344 117.484375 363.902344 116.234375 C 363.652344 114.984375 363.339844 113.75 362.96875 112.53125 C 362.597656 111.3125 362.167969 110.117188 361.679688 108.941406 C 361.191406 107.761719 360.644531 106.613281 360.042969 105.492188 C 359.441406 104.367188 358.785156 103.277344 358.078125 102.21875 C 357.367188 101.160156 356.609375 100.136719 355.800781 99.152344 C 354.992188 98.167969 354.136719 97.226562 353.234375 96.324219 C 352.332031 95.421875 351.390625 94.570312 350.40625 93.761719 C 349.417969 92.953125 348.398438 92.195312 347.335938 91.484375 C 346.277344 90.777344 345.1875 90.121094 344.0625 89.523438 C 342.9375 88.921875 341.789062 88.375 340.609375 87.886719 C 339.433594 87.398438 338.234375 86.96875 337.015625 86.597656 C 335.796875 86.226562 334.5625 85.914062 333.3125 85.664062 C 332.0625 85.414062 330.800781 85.226562 329.53125 85.097656 C 328.265625 84.972656 326.992188 84.90625 325.71875 84.90625 L 269.070312 84.90625 C 267.796875 84.90625 266.523438 84.972656 265.253906 85.097656 C 263.988281 85.226562 262.726562 85.414062 261.476562 85.664062 C 260.226562 85.914062 258.992188 86.226562 257.773438 86.597656 C 256.554688 86.96875 255.355469 87.398438 254.179688 87.886719 C 253 88.375 251.851562 88.921875 250.726562 89.523438 C 249.601562 90.121094 248.511719 90.777344 247.449219 91.484375 C 246.390625 92.195312 245.367188 92.953125 244.382812 93.761719 C 243.398438 94.570312 242.453125 95.421875 241.554688 96.324219 C 240.652344 97.226562 239.796875 98.167969 238.988281 99.152344 C 238.179688 100.136719 237.417969 101.160156 236.710938 102.21875 C 236.003906 103.277344 235.347656 104.367188 234.746094 105.492188 C 234.144531 106.613281 233.597656 107.761719 233.109375 108.941406 C 232.621094 110.117188 232.191406 111.3125 231.820312 112.53125 C 231.445312 113.75 231.136719 114.984375 230.886719 116.234375 C 230.636719 117.484375 230.445312 118.742188 230.320312 120.007812 C 230.191406 121.277344 230.128906 122.546875 230.125 123.820312 L 230.125 191.039062 C 230.121094 191.894531 230.152344 192.75 230.222656 193.605469 C 230.292969 194.460938 230.402344 195.308594 230.550781 196.15625 C 230.699219 197 230.886719 197.835938 231.109375 198.664062 C 231.335938 199.492188 231.597656 200.304688 231.894531 201.109375 C 232.195312 201.914062 232.527344 202.703125 232.898438 203.476562 C 233.269531 204.25 233.675781 205.003906 234.113281 205.742188 C 234.554688 206.476562 235.023438 207.195312 235.527344 207.886719 C 236.03125 208.582031 236.566406 209.25 237.132812 209.898438 C 237.699219 210.542969 238.292969 211.160156 238.914062 211.75 C 239.535156 212.34375 240.179688 212.90625 240.851562 213.4375 C 241.527344 213.96875 242.222656 214.472656 242.9375 214.941406 C 243.65625 215.410156 244.394531 215.847656 245.152344 216.25 C 245.910156 216.652344 246.683594 217.019531 247.476562 217.351562 C 248.265625 217.683594 249.070312 217.980469 249.890625 218.238281 C 250.707031 218.496094 251.535156 218.71875 252.375 218.902344 C 253.210938 219.085938 254.058594 219.234375 254.910156 219.339844 L 254.910156 123.820312 C 254.910156 123.351562 255 122.898438 255.179688 122.46875 C 255.359375 122.035156 255.613281 121.652344 255.945312 121.320312 C 256.277344 120.988281 256.660156 120.730469 257.09375 120.550781 C 257.527344 120.371094 257.980469 120.28125 258.449219 120.28125 C 258.917969 120.28125 259.371094 120.371094 259.804688 120.550781 C 260.238281 120.730469 260.621094 120.988281 260.953125 121.320312 C 261.285156 121.652344 261.539062 122.035156 261.71875 122.46875 C 261.898438 122.898438 261.988281 123.351562 261.988281 123.820312 L 261.988281 222.878906 C 261.988281 223.347656 261.898438 223.796875 261.71875 224.230469 C 261.539062 224.664062 261.285156 225.046875 260.953125 225.378906 C 260.621094 225.710938 260.238281 225.964844 259.804688 226.144531 C 259.371094 226.324219 258.917969 226.414062 258.449219 226.414062 C 257.289062 226.414062 256.132812 226.359375 254.980469 226.246094 C 253.824219 226.132812 252.679688 225.960938 251.542969 225.734375 C 250.40625 225.507812 249.28125 225.226562 248.171875 224.890625 C 247.0625 224.554688 245.972656 224.164062 244.902344 223.722656 C 243.828125 223.277344 242.78125 222.785156 241.761719 222.238281 C 240.738281 221.691406 239.742188 221.097656 238.78125 220.453125 C 237.816406 219.808594 236.886719 219.121094 235.988281 218.386719 C 235.09375 217.648438 234.234375 216.871094 233.414062 216.054688 C 232.59375 215.234375 231.816406 214.375 231.082031 213.480469 C 230.347656 212.585938 229.65625 211.65625 229.011719 210.691406 C 228.367188 209.730469 227.773438 208.734375 227.226562 207.714844 C 226.679688 206.691406 226.183594 205.648438 225.738281 204.574219 C 225.296875 203.503906 224.90625 202.414062 224.570312 201.308594 C 224.234375 200.199219 223.953125 199.074219 223.726562 197.941406 C 223.5 196.804688 223.328125 195.660156 223.214844 194.503906 C 223.101562 193.351562 223.046875 192.195312 223.046875 191.039062 L 223.046875 123.820312 C 223.046875 122.316406 223.125 120.8125 223.273438 119.316406 C 223.421875 117.816406 223.644531 116.328125 223.941406 114.851562 C 224.238281 113.378906 224.605469 111.917969 225.042969 110.476562 C 225.480469 109.039062 225.988281 107.621094 226.566406 106.230469 C 227.144531 104.839844 227.789062 103.480469 228.5 102.15625 C 229.210938 100.828125 229.984375 99.539062 230.824219 98.285156 C 231.660156 97.035156 232.558594 95.828125 233.515625 94.664062 C 234.46875 93.5 235.480469 92.386719 236.546875 91.320312 C 237.613281 90.257812 238.726562 89.246094 239.890625 88.292969 C 241.054688 87.335938 242.265625 86.441406 243.515625 85.601562 C 244.769531 84.765625 246.058594 83.992188 247.386719 83.28125 C 248.714844 82.570312 250.078125 81.925781 251.46875 81.351562 C 252.859375 80.773438 254.277344 80.265625 255.71875 79.828125 C 257.160156 79.386719 258.617188 79.019531 260.097656 78.726562 C 261.574219 78.429688 263.0625 78.207031 264.5625 78.058594 C 266.0625 77.910156 267.5625 77.832031 269.070312 77.832031 L 325.71875 77.832031 C 327.222656 77.832031 328.726562 77.910156 330.226562 78.058594 C 331.726562 78.207031 333.214844 78.429688 334.691406 78.726562 C 336.167969 79.019531 337.628906 79.386719 339.070312 79.828125 C 340.511719 80.265625 341.929688 80.773438 343.320312 81.351562 C 344.710938 81.925781 346.070312 82.570312 347.398438 83.28125 C 348.730469 83.992188 350.019531 84.765625 351.273438 85.601562 C 352.523438 86.441406 353.734375 87.335938 354.898438 88.292969 C 356.0625 89.246094 357.175781 90.257812 358.242188 91.320312 C 359.308594 92.386719 360.320312 93.5 361.273438 94.664062 C 362.230469 95.828125 363.128906 97.035156 363.964844 98.285156 C 364.800781 99.539062 365.578125 100.828125 366.289062 102.15625 C 367 103.480469 367.644531 104.839844 368.222656 106.230469 C 368.796875 107.621094 369.308594 109.039062 369.746094 110.476562 C 370.183594 111.917969 370.550781 113.378906 370.847656 114.851562 C 371.144531 116.328125 371.367188 117.816406 371.515625 119.316406 C 371.664062 120.8125 371.742188 122.316406 371.742188 123.820312 L 371.742188 191.039062 C 371.742188 192.195312 371.6875 193.351562 371.574219 194.503906 C 371.460938 195.660156 371.289062 196.804688 371.0625 197.941406 C 370.835938 199.074219 370.554688 200.199219 370.21875 201.308594 C 369.882812 202.414062 369.492188 203.503906 369.046875 204.574219 C 368.605469 205.648438 368.109375 206.691406 367.5625 207.714844 C 367.015625 208.734375 366.421875 209.730469 365.777344 210.691406 C 365.132812 211.65625 364.441406 212.585938 363.707031 213.480469 C 362.972656 214.375 362.195312 215.234375 361.375 216.054688 C 360.554688 216.871094 359.695312 217.648438 358.800781 218.386719 C 357.902344 219.121094 356.972656 219.808594 356.007812 220.453125 C 355.042969 221.097656 354.050781 221.691406 353.027344 222.238281 C 352.007812 222.785156 350.960938 223.277344 349.886719 223.722656 C 348.816406 224.164062 347.726562 224.554688 346.617188 224.890625 C 345.507812 225.226562 344.382812 225.507812 343.246094 225.734375 C 342.109375 225.960938 340.964844 226.132812 339.808594 226.246094 C 338.65625 226.359375 337.5 226.414062 336.339844 226.414062 Z M 336.339844 226.414062 " fill-opacity="1" fill-rule="nonzero"/></g><path fill="#ffffb7" d="M 169.9375 375 L 166.398438 375 C 165.703125 375 165.007812 374.964844 164.316406 374.898438 C 163.625 374.828125 162.9375 374.726562 162.253906 374.59375 C 161.570312 374.457031 160.898438 374.289062 160.230469 374.085938 C 159.566406 373.882812 158.910156 373.648438 158.269531 373.382812 C 157.625 373.117188 156.996094 372.820312 156.382812 372.492188 C 155.769531 372.164062 155.175781 371.808594 154.597656 371.421875 C 154.019531 371.035156 153.460938 370.621094 152.921875 370.183594 C 152.382812 369.742188 151.867188 369.273438 151.378906 368.78125 C 150.886719 368.292969 150.417969 367.777344 149.976562 367.238281 C 149.535156 366.703125 149.121094 366.144531 148.734375 365.566406 C 148.347656 364.988281 147.992188 364.394531 147.664062 363.78125 C 147.335938 363.167969 147.039062 362.539062 146.773438 361.894531 C 146.507812 361.253906 146.273438 360.601562 146.070312 359.933594 C 145.867188 359.269531 145.699219 358.597656 145.5625 357.914062 C 145.429688 357.234375 145.324219 356.546875 145.257812 355.855469 C 145.191406 355.164062 145.15625 354.46875 145.15625 353.773438 L 145.15625 229.953125 C 145.15625 229.484375 145.246094 229.03125 145.425781 228.597656 C 145.605469 228.164062 145.859375 227.78125 146.191406 227.453125 C 146.523438 227.121094 146.90625 226.863281 147.339844 226.683594 C 147.773438 226.503906 148.226562 226.414062 148.695312 226.414062 C 149.164062 226.414062 149.617188 226.503906 150.050781 226.683594 C 150.484375 226.863281 150.867188 227.121094 151.199219 227.453125 C 151.53125 227.78125 151.785156 228.164062 151.964844 228.597656 C 152.144531 229.03125 152.234375 229.484375 152.234375 229.953125 L 152.234375 353.773438 C 152.234375 354.703125 152.328125 355.621094 152.507812 356.535156 C 152.691406 357.445312 152.957031 358.332031 153.3125 359.1875 C 153.671875 360.046875 154.105469 360.863281 154.621094 361.636719 C 155.140625 362.40625 155.726562 363.121094 156.382812 363.78125 C 157.042969 364.4375 157.757812 365.023438 158.53125 365.539062 C 159.304688 366.054688 160.121094 366.492188 160.976562 366.847656 C 161.835938 367.203125 162.722656 367.472656 163.636719 367.652344 C 164.546875 367.832031 165.46875 367.925781 166.398438 367.925781 L 169.9375 367.925781 C 170.867188 367.925781 171.789062 367.832031 172.703125 367.652344 C 173.613281 367.472656 174.5 367.203125 175.359375 366.847656 C 176.21875 366.492188 177.03125 366.054688 177.804688 365.539062 C 178.578125 365.023438 179.292969 364.4375 179.953125 363.78125 C 180.609375 363.121094 181.195312 362.40625 181.714844 361.636719 C 182.230469 360.863281 182.667969 360.046875 183.023438 359.1875 C 183.378906 358.332031 183.648438 357.445312 183.828125 356.535156 C 184.007812 355.621094 184.101562 354.703125 184.101562 353.773438 L 184.101562 237.027344 C 184.101562 236.558594 184.191406 236.109375 184.371094 235.675781 C 184.550781 235.242188 184.804688 234.859375 185.136719 234.527344 C 185.46875 234.195312 185.851562 233.9375 186.285156 233.761719 C 186.71875 233.582031 187.171875 233.492188 187.640625 233.492188 C 188.109375 233.492188 188.5625 233.582031 188.996094 233.761719 C 189.429688 233.9375 189.8125 234.195312 190.144531 234.527344 C 190.476562 234.859375 190.730469 235.242188 190.910156 235.675781 C 191.089844 236.109375 191.179688 236.558594 191.179688 237.027344 L 191.179688 353.773438 C 191.179688 354.46875 191.148438 355.164062 191.078125 355.855469 C 191.011719 356.546875 190.910156 357.234375 190.773438 357.914062 C 190.636719 358.597656 190.46875 359.269531 190.265625 359.933594 C 190.0625 360.601562 189.832031 361.253906 189.5625 361.898438 C 189.296875 362.539062 189 363.167969 188.671875 363.78125 C 188.34375 364.394531 187.988281 364.988281 187.601562 365.566406 C 187.214844 366.144531 186.800781 366.703125 186.359375 367.238281 C 185.917969 367.777344 185.453125 368.292969 184.960938 368.78125 C 184.46875 369.273438 183.953125 369.742188 183.414062 370.183594 C 182.875 370.621094 182.320312 371.035156 181.742188 371.421875 C 181.160156 371.808594 180.566406 372.164062 179.953125 372.492188 C 179.339844 372.820312 178.710938 373.117188 178.066406 373.382812 C 177.425781 373.648438 176.769531 373.882812 176.105469 374.085938 C 175.4375 374.289062 174.765625 374.457031 174.082031 374.59375 C 173.398438 374.726562 172.714844 374.828125 172.019531 374.898438 C 171.328125 374.964844 170.632812 375 169.9375 375 Z M 169.9375 375 " fill-opacity="1" fill-rule="nonzero"/><path fill="#ffffb7" d="M 208.882812 375 L 205.34375 375 C 204.648438 375 203.953125 374.964844 203.261719 374.898438 C 202.566406 374.828125 201.882812 374.726562 201.199219 374.59375 C 200.515625 374.457031 199.84375 374.289062 199.175781 374.085938 C 198.511719 373.882812 197.855469 373.648438 197.214844 373.382812 C 196.570312 373.117188 195.941406 372.820312 195.328125 372.492188 C 194.714844 372.164062 194.121094 371.808594 193.542969 371.421875 C 192.960938 371.035156 192.40625 370.621094 191.867188 370.183594 C 191.328125 369.742188 190.8125 369.273438 190.320312 368.78125 C 189.828125 368.292969 189.363281 367.777344 188.921875 367.238281 C 188.480469 366.703125 188.066406 366.144531 187.679688 365.566406 C 187.292969 364.988281 186.9375 364.394531 186.609375 363.78125 C 186.28125 363.167969 185.984375 362.539062 185.71875 361.898438 C 185.449219 361.253906 185.21875 360.601562 185.015625 359.933594 C 184.8125 359.269531 184.644531 358.597656 184.507812 357.914062 C 184.371094 357.234375 184.269531 356.546875 184.203125 355.855469 C 184.132812 355.164062 184.101562 354.46875 184.101562 353.773438 L 184.101562 229.953125 C 184.101562 229.484375 184.191406 229.03125 184.371094 228.597656 C 184.550781 228.164062 184.804688 227.78125 185.136719 227.453125 C 185.46875 227.121094 185.851562 226.863281 186.285156 226.683594 C 186.71875 226.503906 187.171875 226.414062 187.640625 226.414062 C 188.109375 226.414062 188.5625 226.503906 188.996094 226.683594 C 189.429688 226.863281 189.8125 227.121094 190.144531 227.453125 C 190.476562 227.78125 190.730469 228.164062 190.910156 228.597656 C 191.089844 229.03125 191.179688 229.484375 191.179688 229.953125 L 191.179688 353.773438 C 191.179688 354.703125 191.273438 355.621094 191.453125 356.535156 C 191.632812 357.445312 191.902344 358.332031 192.257812 359.1875 C 192.613281 360.046875 193.050781 360.863281 193.566406 361.636719 C 194.085938 362.40625 194.671875 363.121094 195.328125 363.78125 C 195.988281 364.4375 196.703125 365.023438 197.476562 365.539062 C 198.25 366.054688 199.0625 366.492188 199.921875 366.847656 C 200.78125 367.203125 201.667969 367.472656 202.578125 367.652344 C 203.492188 367.832031 204.414062 367.925781 205.34375 367.925781 L 208.882812 367.925781 C 209.8125 367.925781 210.734375 367.832031 211.644531 367.652344 C 212.558594 367.472656 213.445312 367.203125 214.300781 366.847656 C 215.160156 366.492188 215.976562 366.054688 216.75 365.539062 C 217.523438 365.023438 218.238281 364.4375 218.898438 363.78125 C 219.554688 363.121094 220.140625 362.40625 220.660156 361.636719 C 221.175781 360.863281 221.609375 360.046875 221.96875 359.1875 C 222.324219 358.332031 222.589844 357.445312 222.773438 356.535156 C 222.953125 355.621094 223.046875 354.703125 223.046875 353.773438 L 223.046875 222.878906 C 223.046875 222.40625 223.136719 221.957031 223.316406 221.523438 C 223.496094 221.089844 223.75 220.707031 224.082031 220.375 C 224.414062 220.042969 224.796875 219.789062 225.230469 219.609375 C 225.664062 219.429688 226.117188 219.339844 226.585938 219.339844 C 227.054688 219.339844 227.507812 219.429688 227.941406 219.609375 C 228.375 219.789062 228.757812 220.042969 229.089844 220.375 C 229.421875 220.707031 229.675781 221.089844 229.855469 221.523438 C 230.035156 221.957031 230.125 222.40625 230.125 222.878906 L 230.125 353.773438 C 230.125 354.46875 230.09375 355.164062 230.023438 355.855469 C 229.957031 356.546875 229.851562 357.234375 229.71875 357.914062 C 229.582031 358.597656 229.414062 359.269531 229.210938 359.933594 C 229.007812 360.601562 228.773438 361.253906 228.507812 361.894531 C 228.242188 362.539062 227.945312 363.167969 227.617188 363.78125 C 227.289062 364.394531 226.933594 364.988281 226.546875 365.566406 C 226.160156 366.144531 225.746094 366.703125 225.304688 367.238281 C 224.863281 367.777344 224.394531 368.292969 223.902344 368.78125 C 223.414062 369.273438 222.898438 369.742188 222.359375 370.183594 C 221.820312 370.621094 221.261719 371.035156 220.683594 371.421875 C 220.105469 371.808594 219.511719 372.164062 218.898438 372.492188 C 218.285156 372.820312 217.65625 373.117188 217.011719 373.382812 C 216.371094 373.648438 215.714844 373.882812 215.050781 374.085938 C 214.382812 374.289062 213.710938 374.457031 213.027344 374.59375 C 212.34375 374.726562 211.65625 374.828125 210.964844 374.898438 C 210.273438 374.964844 209.578125 375 208.882812 375 Z M 208.882812 375 " fill-opacity="1" fill-rule="nonzero"/><path fill="#ffffb7" d="M 187.640625 77.832031 C 186.597656 77.832031 185.554688 77.777344 184.515625 77.675781 C 183.480469 77.574219 182.449219 77.421875 181.425781 77.21875 C 180.402344 77.015625 179.390625 76.761719 178.390625 76.460938 C 177.390625 76.15625 176.410156 75.804688 175.445312 75.40625 C 174.484375 75.007812 173.539062 74.5625 172.621094 74.070312 C 171.699219 73.578125 170.804688 73.042969 169.9375 72.464844 C 169.070312 71.886719 168.234375 71.265625 167.425781 70.601562 C 166.621094 69.941406 165.847656 69.242188 165.109375 68.503906 C 164.371094 67.765625 163.671875 66.996094 163.007812 66.1875 C 162.347656 65.382812 161.726562 64.546875 161.148438 63.679688 C 160.566406 62.8125 160.03125 61.917969 159.539062 61 C 159.046875 60.078125 158.601562 59.136719 158.203125 58.175781 C 157.804688 57.210938 157.453125 56.230469 157.148438 55.234375 C 156.847656 54.234375 156.59375 53.226562 156.390625 52.203125 C 156.183594 51.179688 156.03125 50.148438 155.929688 49.113281 C 155.828125 48.074219 155.777344 47.035156 155.777344 45.992188 C 155.777344 44.949219 155.828125 43.90625 155.929688 42.871094 C 156.03125 41.832031 156.183594 40.800781 156.390625 39.777344 C 156.59375 38.757812 156.847656 37.746094 157.148438 36.746094 C 157.453125 35.75 157.804688 34.769531 158.203125 33.804688 C 158.601562 32.84375 159.046875 31.902344 159.539062 30.980469 C 160.03125 30.0625 160.566406 29.167969 161.148438 28.300781 C 161.726562 27.433594 162.347656 26.597656 163.007812 25.792969 C 163.671875 24.984375 164.371094 24.214844 165.109375 23.476562 C 165.847656 22.738281 166.621094 22.039062 167.425781 21.378906 C 168.234375 20.714844 169.070312 20.097656 169.9375 19.515625 C 170.804688 18.9375 171.699219 18.402344 172.621094 17.910156 C 173.539062 17.417969 174.484375 16.972656 175.445312 16.574219 C 176.410156 16.175781 177.390625 15.824219 178.390625 15.523438 C 179.390625 15.21875 180.402344 14.964844 181.425781 14.761719 C 182.449219 14.558594 183.480469 14.40625 184.515625 14.304688 C 185.554688 14.203125 186.597656 14.152344 187.640625 14.152344 C 188.683594 14.152344 189.726562 14.203125 190.765625 14.304688 C 191.800781 14.40625 192.832031 14.558594 193.855469 14.761719 C 194.878906 14.964844 195.890625 15.21875 196.890625 15.523438 C 197.890625 15.824219 198.871094 16.175781 199.835938 16.574219 C 200.796875 16.972656 201.742188 17.417969 202.660156 17.910156 C 203.582031 18.402344 204.476562 18.9375 205.34375 19.515625 C 206.210938 20.097656 207.046875 20.714844 207.855469 21.378906 C 208.660156 22.039062 209.433594 22.738281 210.171875 23.476562 C 210.910156 24.214844 211.609375 24.984375 212.273438 25.792969 C 212.933594 26.597656 213.554688 27.433594 214.132812 28.300781 C 214.714844 29.167969 215.25 30.0625 215.742188 30.980469 C 216.234375 31.902344 216.679688 32.84375 217.078125 33.804688 C 217.476562 34.769531 217.828125 35.75 218.132812 36.746094 C 218.433594 37.746094 218.6875 38.757812 218.890625 39.777344 C 219.097656 40.800781 219.25 41.832031 219.351562 42.871094 C 219.453125 43.90625 219.503906 44.949219 219.503906 45.992188 C 219.503906 47.03125 219.449219 48.070312 219.34375 49.109375 C 219.242188 50.144531 219.085938 51.175781 218.878906 52.199219 C 218.675781 53.21875 218.421875 54.226562 218.117188 55.226562 C 217.8125 56.222656 217.460938 57.203125 217.058594 58.164062 C 216.660156 59.125 216.214844 60.066406 215.722656 60.984375 C 215.230469 61.90625 214.691406 62.796875 214.113281 63.664062 C 213.53125 64.527344 212.910156 65.363281 212.25 66.171875 C 211.589844 66.976562 210.886719 67.746094 210.152344 68.484375 C 209.414062 69.222656 208.640625 69.921875 207.835938 70.582031 C 207.03125 71.242188 206.195312 71.863281 205.328125 72.441406 C 204.460938 73.023438 203.566406 73.558594 202.648438 74.050781 C 201.726562 74.542969 200.785156 74.988281 199.824219 75.386719 C 198.859375 75.789062 197.878906 76.140625 196.882812 76.445312 C 195.882812 76.746094 194.875 77 193.851562 77.207031 C 192.828125 77.410156 191.800781 77.566406 190.761719 77.671875 C 189.722656 77.773438 188.683594 77.828125 187.640625 77.832031 Z M 187.640625 21.226562 C 186.828125 21.226562 186.019531 21.265625 185.210938 21.34375 C 184.402344 21.425781 183.601562 21.542969 182.804688 21.703125 C 182.007812 21.859375 181.222656 22.058594 180.445312 22.292969 C 179.667969 22.527344 178.90625 22.800781 178.15625 23.113281 C 177.40625 23.421875 176.671875 23.769531 175.957031 24.152344 C 175.242188 24.53125 174.546875 24.949219 173.871094 25.398438 C 173.195312 25.851562 172.546875 26.332031 171.917969 26.847656 C 171.289062 27.363281 170.691406 27.90625 170.117188 28.480469 C 169.542969 29.054688 168.996094 29.652344 168.484375 30.28125 C 167.96875 30.90625 167.484375 31.558594 167.035156 32.230469 C 166.582031 32.90625 166.167969 33.601562 165.785156 34.316406 C 165.402344 35.03125 165.054688 35.765625 164.742188 36.515625 C 164.433594 37.261719 164.160156 38.027344 163.925781 38.800781 C 163.6875 39.578125 163.492188 40.363281 163.332031 41.160156 C 163.175781 41.953125 163.054688 42.757812 162.976562 43.5625 C 162.898438 44.371094 162.859375 45.179688 162.859375 45.992188 C 162.859375 46.800781 162.898438 47.609375 162.976562 48.417969 C 163.054688 49.226562 163.175781 50.027344 163.332031 50.820312 C 163.492188 51.617188 163.6875 52.402344 163.925781 53.179688 C 164.160156 53.957031 164.433594 54.71875 164.742188 55.46875 C 165.054688 56.214844 165.402344 56.949219 165.785156 57.664062 C 166.167969 58.378906 166.582031 59.074219 167.035156 59.75 C 167.484375 60.421875 167.96875 61.074219 168.484375 61.699219 C 168.996094 62.328125 169.542969 62.929688 170.117188 63.5 C 170.691406 64.074219 171.289062 64.617188 171.917969 65.132812 C 172.546875 65.648438 173.195312 66.128906 173.871094 66.582031 C 174.546875 67.03125 175.242188 67.449219 175.957031 67.832031 C 176.671875 68.214844 177.40625 68.558594 178.15625 68.871094 C 178.90625 69.179688 179.667969 69.453125 180.445312 69.6875 C 181.222656 69.921875 182.007812 70.121094 182.804688 70.277344 C 183.601562 70.4375 184.402344 70.554688 185.210938 70.636719 C 186.019531 70.714844 186.828125 70.753906 187.640625 70.753906 C 188.453125 70.753906 189.261719 70.714844 190.070312 70.636719 C 190.878906 70.554688 191.679688 70.4375 192.476562 70.277344 C 193.273438 70.121094 194.058594 69.921875 194.835938 69.6875 C 195.613281 69.453125 196.375 69.179688 197.125 68.871094 C 197.875 68.558594 198.609375 68.214844 199.324219 67.832031 C 200.039062 67.449219 200.734375 67.03125 201.410156 66.582031 C 202.085938 66.128906 202.734375 65.648438 203.363281 65.132812 C 203.992188 64.617188 204.589844 64.074219 205.164062 63.5 C 205.738281 62.929688 206.285156 62.328125 206.796875 61.699219 C 207.3125 61.074219 207.796875 60.421875 208.246094 59.75 C 208.699219 59.074219 209.113281 58.378906 209.496094 57.664062 C 209.878906 56.949219 210.226562 56.214844 210.539062 55.46875 C 210.847656 54.71875 211.121094 53.957031 211.355469 53.179688 C 211.59375 52.402344 211.789062 51.617188 211.949219 50.820312 C 212.105469 50.027344 212.226562 49.226562 212.304688 48.417969 C 212.382812 47.609375 212.421875 46.800781 212.421875 45.992188 C 212.421875 45.179688 212.382812 44.371094 212.304688 43.5625 C 212.226562 42.757812 212.105469 41.953125 211.949219 41.160156 C 211.789062 40.363281 211.59375 39.578125 211.355469 38.800781 C 211.121094 38.027344 210.847656 37.261719 210.539062 36.515625 C 210.226562 35.765625 209.878906 35.03125 209.496094 34.316406 C 209.113281 33.601562 208.699219 32.90625 208.246094 32.230469 C 207.796875 31.558594 207.3125 30.90625 206.796875 30.28125 C 206.285156 29.652344 205.738281 29.054688 205.164062 28.480469 C 204.589844 27.90625 203.992188 27.363281 203.363281 26.847656 C 202.734375 26.332031 202.085938 25.851562 201.410156 25.398438 C 200.734375 24.949219 200.039062 24.53125 199.324219 24.152344 C 198.609375 23.769531 197.875 23.421875 197.125 23.113281 C 196.375 22.800781 195.613281 22.527344 194.835938 22.292969 C 194.058594 22.058594 193.273438 21.859375 192.476562 21.703125 C 191.679688 21.542969 190.878906 21.425781 190.070312 21.34375 C 189.261719 21.265625 188.453125 21.226562 187.640625 21.226562 Z M 187.640625 21.226562 " fill-opacity="1" fill-rule="nonzero"/><path fill="#ffffb7" d="M 148.695312 233.492188 C 147.535156 233.492188 146.378906 233.433594 145.226562 233.320312 C 144.070312 233.207031 142.925781 233.035156 141.789062 232.8125 C 140.652344 232.585938 139.527344 232.304688 138.417969 231.96875 C 137.308594 231.632812 136.21875 231.242188 135.148438 230.796875 C 134.074219 230.355469 133.027344 229.859375 132.007812 229.3125 C 130.984375 228.765625 129.992188 228.171875 129.027344 227.527344 C 128.0625 226.882812 127.132812 226.195312 126.234375 225.460938 C 125.339844 224.726562 124.480469 223.949219 123.660156 223.128906 C 122.839844 222.308594 122.0625 221.453125 121.328125 220.554688 C 120.59375 219.660156 119.902344 218.730469 119.257812 217.769531 C 118.613281 216.804688 118.019531 215.8125 117.472656 214.789062 C 116.925781 213.769531 116.429688 212.722656 115.988281 211.652344 C 115.542969 210.582031 115.152344 209.492188 114.816406 208.382812 C 114.480469 207.273438 114.199219 206.152344 113.972656 205.015625 C 113.746094 203.878906 113.574219 202.734375 113.460938 201.582031 C 113.347656 200.425781 113.292969 199.273438 113.292969 198.113281 L 113.292969 137.972656 C 113.292969 136.464844 113.371094 134.964844 113.519531 133.464844 C 113.667969 131.96875 113.890625 130.480469 114.1875 129.003906 C 114.484375 127.527344 114.851562 126.070312 115.289062 124.628906 C 115.726562 123.1875 116.234375 121.773438 116.8125 120.382812 C 117.390625 118.992188 118.035156 117.632812 118.746094 116.304688 C 119.457031 114.976562 120.230469 113.6875 121.070312 112.4375 C 121.90625 111.1875 122.804688 109.976562 123.761719 108.816406 C 124.714844 107.652344 125.726562 106.535156 126.792969 105.472656 C 127.859375 104.40625 128.972656 103.398438 130.136719 102.441406 C 131.300781 101.488281 132.511719 100.589844 133.761719 99.753906 C 135.015625 98.917969 136.304688 98.144531 137.632812 97.433594 C 138.964844 96.722656 140.324219 96.078125 141.714844 95.5 C 143.105469 94.921875 144.523438 94.414062 145.964844 93.976562 C 147.40625 93.539062 148.867188 93.171875 150.34375 92.875 C 151.820312 92.582031 153.308594 92.359375 154.808594 92.207031 C 156.308594 92.058594 157.808594 91.984375 159.316406 91.980469 L 223.046875 91.980469 C 223.515625 91.980469 223.964844 92.070312 224.398438 92.25 C 224.832031 92.429688 225.214844 92.6875 225.546875 93.015625 C 225.878906 93.347656 226.136719 93.730469 226.316406 94.164062 C 226.496094 94.597656 226.585938 95.050781 226.585938 95.519531 C 226.585938 95.988281 226.496094 96.4375 226.316406 96.871094 C 226.136719 97.304688 225.878906 97.6875 225.546875 98.019531 C 225.214844 98.351562 224.832031 98.609375 224.398438 98.789062 C 223.964844 98.96875 223.515625 99.054688 223.046875 99.054688 L 159.316406 99.054688 C 158.042969 99.058594 156.769531 99.125 155.503906 99.25 C 154.234375 99.378906 152.972656 99.566406 151.722656 99.816406 C 150.472656 100.066406 149.238281 100.375 148.019531 100.75 C 146.800781 101.121094 145.601562 101.550781 144.425781 102.039062 C 143.246094 102.527344 142.097656 103.070312 140.972656 103.671875 C 139.847656 104.273438 138.757812 104.929688 137.695312 105.636719 C 136.636719 106.34375 135.613281 107.101562 134.628906 107.910156 C 133.644531 108.71875 132.699219 109.574219 131.800781 110.476562 C 130.898438 111.375 130.042969 112.320312 129.234375 113.304688 C 128.425781 114.289062 127.667969 115.308594 126.957031 116.367188 C 126.25 117.425781 125.59375 118.519531 124.992188 119.640625 C 124.390625 120.765625 123.84375 121.914062 123.355469 123.089844 C 122.867188 124.265625 122.4375 125.464844 122.066406 126.683594 C 121.695312 127.902344 121.382812 129.136719 121.132812 130.382812 C 120.882812 131.632812 120.691406 132.890625 120.566406 134.160156 C 120.4375 135.425781 120.375 136.699219 120.371094 137.972656 L 120.371094 198.113281 C 120.367188 198.96875 120.398438 199.828125 120.46875 200.679688 C 120.539062 201.535156 120.648438 202.386719 120.796875 203.230469 C 120.945312 204.074219 121.132812 204.910156 121.359375 205.738281 C 121.582031 206.566406 121.84375 207.382812 122.140625 208.1875 C 122.441406 208.988281 122.777344 209.777344 123.144531 210.550781 C 123.515625 211.324219 123.921875 212.082031 124.359375 212.816406 C 124.800781 213.554688 125.269531 214.269531 125.773438 214.964844 C 126.28125 215.65625 126.8125 216.328125 127.378906 216.972656 C 127.945312 217.617188 128.539062 218.234375 129.160156 218.828125 C 129.78125 219.417969 130.425781 219.980469 131.101562 220.511719 C 131.773438 221.046875 132.46875 221.546875 133.1875 222.015625 C 133.902344 222.488281 134.640625 222.921875 135.398438 223.324219 C 136.15625 223.726562 136.929688 224.09375 137.722656 224.425781 C 138.515625 224.757812 139.320312 225.054688 140.136719 225.3125 C 140.953125 225.574219 141.78125 225.792969 142.621094 225.976562 C 143.460938 226.164062 144.304688 226.308594 145.15625 226.414062 L 145.15625 137.972656 C 145.15625 137.503906 145.246094 137.050781 145.425781 136.617188 C 145.605469 136.183594 145.859375 135.800781 146.191406 135.46875 C 146.523438 135.136719 146.90625 134.882812 147.339844 134.703125 C 147.773438 134.523438 148.226562 134.433594 148.695312 134.433594 C 149.164062 134.433594 149.617188 134.523438 150.050781 134.703125 C 150.484375 134.882812 150.867188 135.136719 151.199219 135.46875 C 151.53125 135.800781 151.785156 136.183594 151.964844 136.617188 C 152.144531 137.050781 152.234375 137.503906 152.234375 137.972656 L 152.234375 229.953125 C 152.234375 230.421875 152.144531 230.875 151.964844 231.304688 C 151.785156 231.738281 151.53125 232.121094 151.199219 232.453125 C 150.867188 232.785156 150.484375 233.042969 150.050781 233.222656 C 149.617188 233.402344 149.164062 233.492188 148.695312 233.492188 Z M 148.695312 233.492188 " fill-opacity="1" fill-rule="nonzero"/><path fill="#ffffb7" d="M 60.183594 375 L 56.644531 375 C 55.949219 375 55.253906 374.964844 54.5625 374.898438 C 53.871094 374.828125 53.183594 374.726562 52.5 374.59375 C 51.816406 374.457031 51.144531 374.289062 50.476562 374.085938 C 49.8125 373.882812 49.15625 373.648438 48.515625 373.382812 C 47.871094 373.117188 47.246094 372.820312 46.628906 372.492188 C 46.015625 372.164062 45.421875 371.808594 44.84375 371.421875 C 44.265625 371.035156 43.707031 370.621094 43.167969 370.183594 C 42.628906 369.742188 42.117188 369.273438 41.625 368.78125 C 41.132812 368.292969 40.664062 367.777344 40.222656 367.238281 C 39.78125 366.703125 39.367188 366.144531 38.980469 365.566406 C 38.59375 364.988281 38.238281 364.394531 37.910156 363.78125 C 37.582031 363.167969 37.285156 362.539062 37.019531 361.898438 C 36.753906 361.253906 36.519531 360.601562 36.316406 359.933594 C 36.113281 359.269531 35.945312 358.597656 35.808594 357.914062 C 35.675781 357.234375 35.570312 356.546875 35.503906 355.855469 C 35.4375 355.164062 35.402344 354.46875 35.402344 353.773438 L 35.402344 244.105469 C 35.402344 243.632812 35.492188 243.183594 35.671875 242.75 C 35.851562 242.316406 36.105469 241.933594 36.4375 241.601562 C 36.769531 241.269531 37.152344 241.015625 37.585938 240.835938 C 38.019531 240.65625 38.472656 240.566406 38.941406 240.566406 C 39.410156 240.566406 39.863281 240.65625 40.296875 240.835938 C 40.730469 241.015625 41.113281 241.269531 41.445312 241.601562 C 41.777344 241.933594 42.035156 242.316406 42.214844 242.75 C 42.394531 243.183594 42.484375 243.632812 42.484375 244.105469 L 42.484375 353.773438 C 42.484375 354.703125 42.574219 355.621094 42.753906 356.535156 C 42.9375 357.445312 43.203125 358.332031 43.5625 359.1875 C 43.917969 360.046875 44.351562 360.863281 44.871094 361.636719 C 45.386719 362.40625 45.972656 363.121094 46.628906 363.78125 C 47.289062 364.4375 48.003906 365.023438 48.777344 365.539062 C 49.550781 366.054688 50.367188 366.492188 51.226562 366.847656 C 52.082031 367.203125 52.96875 367.472656 53.882812 367.652344 C 54.792969 367.832031 55.714844 367.925781 56.644531 367.925781 L 60.183594 367.925781 C 61.113281 367.925781 62.035156 367.832031 62.949219 367.652344 C 63.859375 367.472656 64.746094 367.203125 65.605469 366.847656 C 66.464844 366.492188 67.28125 366.054688 68.050781 365.539062 C 68.824219 365.023438 69.542969 364.4375 70.199219 363.78125 C 70.855469 363.121094 71.441406 362.40625 71.960938 361.636719 C 72.476562 360.863281 72.914062 360.046875 73.269531 359.1875 C 73.625 358.332031 73.894531 357.445312 74.074219 356.535156 C 74.253906 355.621094 74.347656 354.703125 74.347656 353.773438 L 74.347656 251.179688 C 74.347656 250.710938 74.4375 250.257812 74.617188 249.824219 C 74.796875 249.390625 75.050781 249.007812 75.382812 248.675781 C 75.714844 248.347656 76.097656 248.089844 76.53125 247.910156 C 76.964844 247.730469 77.417969 247.640625 77.886719 247.640625 C 78.355469 247.640625 78.808594 247.730469 79.242188 247.910156 C 79.675781 248.089844 80.058594 248.347656 80.390625 248.675781 C 80.722656 249.007812 80.976562 249.390625 81.15625 249.824219 C 81.335938 250.257812 81.425781 250.710938 81.425781 251.179688 L 81.425781 353.773438 C 81.425781 354.46875 81.394531 355.164062 81.324219 355.855469 C 81.257812 356.546875 81.15625 357.234375 81.019531 357.914062 C 80.882812 358.597656 80.714844 359.269531 80.511719 359.933594 C 80.3125 360.601562 80.078125 361.253906 79.808594 361.894531 C 79.542969 362.539062 79.246094 363.167969 78.917969 363.78125 C 78.589844 364.394531 78.234375 364.988281 77.847656 365.566406 C 77.460938 366.144531 77.046875 366.703125 76.605469 367.238281 C 76.164062 367.777344 75.699219 368.292969 75.207031 368.78125 C 74.714844 369.273438 74.199219 369.742188 73.660156 370.183594 C 73.125 370.621094 72.566406 371.035156 71.988281 371.421875 C 71.40625 371.808594 70.8125 372.164062 70.199219 372.492188 C 69.585938 372.820312 68.957031 373.117188 68.3125 373.382812 C 67.671875 373.648438 67.015625 373.882812 66.351562 374.085938 C 65.683594 374.289062 65.011719 374.457031 64.328125 374.59375 C 63.648438 374.726562 62.960938 374.828125 62.265625 374.898438 C 61.574219 374.964844 60.878906 375 60.183594 375 Z M 60.183594 375 " fill-opacity="1" fill-rule="nonzero"/><path fill="#ffffb7" d="M 99.128906 375 L 95.589844 375 C 94.894531 375 94.199219 374.964844 93.507812 374.898438 C 92.816406 374.828125 92.128906 374.726562 91.445312 374.59375 C 90.761719 374.457031 90.089844 374.289062 89.421875 374.085938 C 88.757812 373.882812 88.101562 373.648438 87.460938 373.382812 C 86.816406 373.117188 86.1875 372.820312 85.574219 372.492188 C 84.960938 372.164062 84.367188 371.808594 83.789062 371.421875 C 83.207031 371.035156 82.652344 370.621094 82.113281 370.183594 C 81.574219 369.742188 81.058594 369.273438 80.570312 368.78125 C 80.078125 368.292969 79.609375 367.777344 79.167969 367.238281 C 78.726562 366.703125 78.3125 366.144531 77.925781 365.566406 C 77.539062 364.988281 77.183594 364.394531 76.855469 363.78125 C 76.527344 363.167969 76.230469 362.539062 75.964844 361.894531 C 75.699219 361.253906 75.464844 360.601562 75.261719 359.933594 C 75.058594 359.269531 74.890625 358.597656 74.753906 357.914062 C 74.617188 357.234375 74.515625 356.546875 74.449219 355.855469 C 74.378906 355.164062 74.347656 354.46875 74.347656 353.773438 L 74.347656 244.105469 C 74.347656 243.632812 74.4375 243.183594 74.617188 242.75 C 74.796875 242.316406 75.050781 241.933594 75.382812 241.601562 C 75.714844 241.269531 76.097656 241.015625 76.53125 240.835938 C 76.964844 240.65625 77.417969 240.566406 77.886719 240.566406 C 78.355469 240.566406 78.808594 240.65625 79.242188 240.835938 C 79.675781 241.015625 80.058594 241.269531 80.390625 241.601562 C 80.722656 241.933594 80.976562 242.316406 81.15625 242.75 C 81.335938 243.183594 81.425781 243.632812 81.425781 244.105469 L 81.425781 353.773438 C 81.425781 354.703125 81.519531 355.621094 81.699219 356.535156 C 81.882812 357.445312 82.148438 358.332031 82.503906 359.1875 C 82.859375 360.046875 83.296875 360.863281 83.8125 361.636719 C 84.332031 362.40625 84.917969 363.121094 85.574219 363.78125 C 86.234375 364.4375 86.949219 365.023438 87.722656 365.539062 C 88.496094 366.054688 89.3125 366.492188 90.167969 366.847656 C 91.027344 367.203125 91.914062 367.472656 92.828125 367.652344 C 93.738281 367.832031 94.660156 367.925781 95.589844 367.925781 L 99.128906 367.925781 C 100.058594 367.925781 100.980469 367.832031 101.890625 367.652344 C 102.804688 367.472656 103.691406 367.203125 104.550781 366.847656 C 105.40625 366.492188 106.222656 366.054688 106.996094 365.539062 C 107.769531 365.023438 108.484375 364.4375 109.144531 363.78125 C 109.800781 363.121094 110.386719 362.40625 110.90625 361.636719 C 111.421875 360.863281 111.859375 360.046875 112.214844 359.1875 C 112.570312 358.332031 112.835938 357.445312 113.019531 356.535156 C 113.199219 355.621094 113.292969 354.703125 113.292969 353.773438 L 113.292969 229.953125 C 113.292969 229.484375 113.382812 229.03125 113.5625 228.597656 C 113.742188 228.164062 113.996094 227.78125 114.328125 227.453125 C 114.660156 227.121094 115.042969 226.863281 115.476562 226.683594 C 115.910156 226.503906 116.363281 226.414062 116.832031 226.414062 C 117.300781 226.414062 117.753906 226.503906 118.1875 226.683594 C 118.621094 226.863281 119.003906 227.121094 119.335938 227.453125 C 119.667969 227.78125 119.921875 228.164062 120.101562 228.597656 C 120.28125 229.03125 120.371094 229.484375 120.371094 229.953125 L 120.371094 353.773438 C 120.371094 354.46875 120.339844 355.164062 120.269531 355.855469 C 120.203125 356.546875 120.101562 357.234375 119.964844 357.914062 C 119.828125 358.597656 119.660156 359.269531 119.457031 359.933594 C 119.253906 360.601562 119.023438 361.253906 118.753906 361.898438 C 118.488281 362.539062 118.191406 363.167969 117.863281 363.78125 C 117.535156 364.394531 117.179688 364.988281 116.792969 365.566406 C 116.40625 366.144531 115.992188 366.703125 115.550781 367.238281 C 115.109375 367.777344 114.640625 368.292969 114.152344 368.78125 C 113.660156 369.273438 113.144531 369.742188 112.605469 370.183594 C 112.066406 370.621094 111.511719 371.035156 110.929688 371.421875 C 110.351562 371.808594 109.757812 372.164062 109.144531 372.492188 C 108.53125 372.820312 107.902344 373.117188 107.257812 373.382812 C 106.617188 373.648438 105.960938 373.882812 105.296875 374.085938 C 104.628906 374.289062 103.957031 374.457031 103.273438 374.59375 C 102.589844 374.726562 101.902344 374.828125 101.210938 374.898438 C 100.519531 374.964844 99.824219 375 99.128906 375 Z M 99.128906 375 " fill-opacity="1" fill-rule="nonzero"/><path fill="#ffffb7" d="M 77.886719 91.980469 C 76.84375 91.980469 75.800781 91.929688 74.765625 91.828125 C 73.726562 91.726562 72.695312 91.574219 71.671875 91.371094 C 70.648438 91.164062 69.636719 90.914062 68.636719 90.609375 C 67.640625 90.308594 66.65625 89.957031 65.691406 89.558594 C 64.730469 89.160156 63.785156 88.714844 62.867188 88.222656 C 61.945312 87.730469 61.050781 87.195312 60.183594 86.613281 C 59.316406 86.035156 58.480469 85.414062 57.671875 84.753906 C 56.867188 84.09375 56.09375 83.394531 55.355469 82.65625 C 54.617188 81.917969 53.917969 81.144531 53.253906 80.339844 C 52.59375 79.535156 51.972656 78.699219 51.394531 77.832031 C 50.8125 76.964844 50.277344 76.070312 49.785156 75.152344 C 49.292969 74.230469 48.847656 73.289062 48.449219 72.324219 C 48.050781 71.363281 47.699219 70.382812 47.394531 69.382812 C 47.09375 68.386719 46.839844 67.375 46.636719 66.351562 C 46.433594 65.332031 46.277344 64.300781 46.175781 63.261719 C 46.074219 62.222656 46.023438 61.183594 46.023438 60.140625 C 46.023438 59.097656 46.074219 58.058594 46.175781 57.019531 C 46.277344 55.984375 46.433594 54.953125 46.636719 53.929688 C 46.839844 52.90625 47.09375 51.898438 47.394531 50.898438 C 47.699219 49.902344 48.050781 48.921875 48.449219 47.957031 C 48.847656 46.992188 49.292969 46.050781 49.785156 45.132812 C 50.277344 44.210938 50.8125 43.320312 51.394531 42.453125 C 51.972656 41.585938 52.59375 40.75 53.253906 39.941406 C 53.917969 39.136719 54.617188 38.363281 55.355469 37.628906 C 56.09375 36.890625 56.867188 36.191406 57.671875 35.527344 C 58.480469 34.867188 59.316406 34.246094 60.183594 33.667969 C 61.050781 33.089844 61.945312 32.554688 62.867188 32.0625 C 63.785156 31.570312 64.730469 31.125 65.691406 30.726562 C 66.65625 30.328125 67.640625 29.976562 68.636719 29.671875 C 69.636719 29.371094 70.648438 29.117188 71.671875 28.914062 C 72.695312 28.710938 73.726562 28.558594 74.765625 28.457031 C 75.800781 28.351562 76.84375 28.300781 77.886719 28.300781 C 78.929688 28.300781 79.972656 28.351562 81.011719 28.457031 C 82.046875 28.558594 83.078125 28.710938 84.101562 28.914062 C 85.125 29.117188 86.136719 29.371094 87.136719 29.671875 C 88.136719 29.976562 89.117188 30.328125 90.082031 30.726562 C 91.046875 31.125 91.988281 31.570312 92.90625 32.0625 C 93.828125 32.554688 94.722656 33.089844 95.589844 33.667969 C 96.457031 34.246094 97.292969 34.867188 98.101562 35.527344 C 98.90625 36.191406 99.679688 36.890625 100.417969 37.628906 C 101.15625 38.363281 101.855469 39.136719 102.519531 39.941406 C 103.179688 40.75 103.800781 41.585938 104.382812 42.453125 C 104.960938 43.320312 105.496094 44.210938 105.988281 45.132812 C 106.480469 46.050781 106.925781 46.992188 107.324219 47.957031 C 107.726562 48.921875 108.074219 49.902344 108.378906 50.898438 C 108.683594 51.898438 108.933594 52.90625 109.140625 53.929688 C 109.34375 54.953125 109.496094 55.984375 109.597656 57.019531 C 109.699219 58.058594 109.75 59.097656 109.75 60.140625 C 109.75 61.183594 109.695312 62.222656 109.589844 63.261719 C 109.488281 64.296875 109.332031 65.328125 109.128906 66.347656 C 108.921875 67.371094 108.667969 68.378906 108.363281 69.375 C 108.058594 70.371094 107.707031 71.351562 107.304688 72.316406 C 106.90625 73.277344 106.460938 74.21875 105.96875 75.136719 C 105.476562 76.054688 104.9375 76.949219 104.359375 77.8125 C 103.78125 78.679688 103.160156 79.515625 102.496094 80.320312 C 101.835938 81.125 101.136719 81.898438 100.398438 82.636719 C 99.660156 83.371094 98.886719 84.070312 98.082031 84.730469 C 97.277344 85.394531 96.441406 86.015625 95.574219 86.59375 C 94.707031 87.171875 93.8125 87.707031 92.894531 88.199219 C 91.972656 88.691406 91.03125 89.140625 90.070312 89.539062 C 89.105469 89.9375 88.125 90.289062 87.128906 90.59375 C 86.132812 90.898438 85.121094 91.152344 84.097656 91.359375 C 83.074219 91.5625 82.046875 91.71875 81.007812 91.820312 C 79.96875 91.925781 78.929688 91.980469 77.886719 91.980469 Z M 77.886719 35.378906 C 77.074219 35.378906 76.265625 35.417969 75.457031 35.496094 C 74.648438 35.574219 73.847656 35.695312 73.050781 35.851562 C 72.257812 36.011719 71.46875 36.207031 70.691406 36.445312 C 69.917969 36.679688 69.152344 36.953125 68.402344 37.261719 C 67.652344 37.574219 66.921875 37.917969 66.203125 38.300781 C 65.488281 38.683594 64.792969 39.101562 64.117188 39.550781 C 63.445312 40 62.792969 40.484375 62.164062 41 C 61.539062 41.511719 60.9375 42.058594 60.363281 42.628906 C 59.789062 43.203125 59.246094 43.804688 58.730469 44.429688 C 58.214844 45.058594 57.730469 45.707031 57.28125 46.382812 C 56.828125 47.058594 56.414062 47.753906 56.03125 48.46875 C 55.648438 49.183594 55.300781 49.914062 54.992188 50.664062 C 54.679688 51.414062 54.40625 52.175781 54.171875 52.953125 C 53.933594 53.730469 53.738281 54.515625 53.582031 55.308594 C 53.421875 56.105469 53.304688 56.90625 53.222656 57.714844 C 53.144531 58.519531 53.105469 59.332031 53.105469 60.140625 C 53.105469 60.953125 53.144531 61.761719 53.222656 62.570312 C 53.304688 63.375 53.421875 64.175781 53.582031 64.972656 C 53.738281 65.769531 53.933594 66.554688 54.171875 67.332031 C 54.40625 68.105469 54.679688 68.867188 54.992188 69.617188 C 55.300781 70.367188 55.648438 71.101562 56.03125 71.816406 C 56.414062 72.53125 56.828125 73.226562 57.28125 73.898438 C 57.730469 74.574219 58.214844 75.226562 58.730469 75.851562 C 59.246094 76.480469 59.789062 77.078125 60.363281 77.652344 C 60.9375 78.226562 61.539062 78.769531 62.164062 79.285156 C 62.792969 79.800781 63.445312 80.28125 64.117188 80.730469 C 64.792969 81.183594 65.488281 81.597656 66.203125 81.980469 C 66.921875 82.363281 67.652344 82.710938 68.402344 83.019531 C 69.152344 83.332031 69.917969 83.605469 70.691406 83.839844 C 71.46875 84.074219 72.257812 84.273438 73.050781 84.429688 C 73.847656 84.589844 74.648438 84.707031 75.457031 84.785156 C 76.265625 84.867188 77.074219 84.90625 77.886719 84.90625 C 78.699219 84.90625 79.507812 84.867188 80.316406 84.785156 C 81.125 84.707031 81.925781 84.589844 82.722656 84.429688 C 83.519531 84.273438 84.304688 84.074219 85.082031 83.839844 C 85.859375 83.605469 86.621094 83.332031 87.371094 83.019531 C 88.121094 82.710938 88.855469 82.363281 89.570312 81.980469 C 90.285156 81.597656 90.980469 81.183594 91.65625 80.730469 C 92.332031 80.28125 92.980469 79.800781 93.609375 79.285156 C 94.238281 78.769531 94.835938 78.226562 95.410156 77.652344 C 95.984375 77.078125 96.53125 76.480469 97.042969 75.851562 C 97.558594 75.226562 98.042969 74.574219 98.492188 73.898438 C 98.945312 73.226562 99.359375 72.53125 99.742188 71.816406 C 100.125 71.101562 100.472656 70.367188 100.785156 69.617188 C 101.09375 68.867188 101.367188 68.105469 101.601562 67.332031 C 101.839844 66.554688 102.035156 65.769531 102.195312 64.972656 C 102.351562 64.175781 102.472656 63.375 102.550781 62.570312 C 102.628906 61.761719 102.671875 60.953125 102.671875 60.140625 C 102.671875 59.332031 102.628906 58.519531 102.550781 57.714844 C 102.472656 56.90625 102.351562 56.105469 102.195312 55.308594 C 102.035156 54.515625 101.839844 53.730469 101.601562 52.953125 C 101.367188 52.175781 101.09375 51.414062 100.785156 50.664062 C 100.472656 49.914062 100.125 49.183594 99.742188 48.46875 C 99.359375 47.753906 98.945312 47.058594 98.492188 46.382812 C 98.042969 45.707031 97.558594 45.058594 97.042969 44.429688 C 96.53125 43.804688 95.984375 43.203125 95.410156 42.628906 C 94.835938 42.058594 94.238281 41.511719 93.609375 41 C 92.980469 40.484375 92.332031 40 91.65625 39.550781 C 90.980469 39.101562 90.285156 38.683594 89.570312 38.300781 C 88.855469 37.917969 88.121094 37.574219 87.371094 37.261719 C 86.621094 36.953125 85.859375 36.679688 85.082031 36.445312 C 84.304688 36.207031 83.519531 36.011719 82.722656 35.851562 C 81.925781 35.695312 81.125 35.574219 80.316406 35.496094 C 79.507812 35.417969 78.699219 35.378906 77.886719 35.378906 Z M 77.886719 35.378906 " fill-opacity="1" fill-rule="nonzero"/><g clip-path="url(#3ec07b8f40)"><path fill="#ffffb7" d="M 38.941406 247.640625 C 37.78125 247.640625 36.625 247.585938 35.472656 247.472656 C 34.316406 247.359375 33.171875 247.1875 32.035156 246.960938 C 30.898438 246.734375 29.773438 246.453125 28.664062 246.117188 C 27.554688 245.78125 26.464844 245.390625 25.394531 244.949219 C 24.320312 244.503906 23.273438 244.011719 22.253906 243.464844 C 21.230469 242.917969 20.238281 242.324219 19.273438 241.679688 C 18.308594 241.035156 17.378906 240.347656 16.480469 239.609375 C 15.585938 238.875 14.726562 238.097656 13.90625 237.28125 C 13.085938 236.460938 12.308594 235.601562 11.574219 234.707031 C 10.839844 233.8125 10.148438 232.882812 9.503906 231.917969 C 8.859375 230.957031 8.265625 229.960938 7.71875 228.941406 C 7.171875 227.917969 6.675781 226.871094 6.234375 225.800781 C 5.789062 224.730469 5.398438 223.640625 5.0625 222.535156 C 4.726562 221.425781 4.445312 220.300781 4.21875 219.164062 C 3.992188 218.03125 3.820312 216.886719 3.707031 215.730469 C 3.59375 214.578125 3.539062 213.421875 3.539062 212.265625 L 3.539062 152.121094 C 3.539062 150.617188 3.617188 149.113281 3.765625 147.617188 C 3.914062 146.117188 4.136719 144.632812 4.433594 143.15625 C 4.730469 141.679688 5.097656 140.21875 5.535156 138.78125 C 5.972656 137.339844 6.484375 135.925781 7.058594 134.535156 C 7.636719 133.144531 8.28125 131.785156 8.992188 130.457031 C 9.703125 129.128906 10.480469 127.839844 11.316406 126.589844 C 12.152344 125.335938 13.050781 124.128906 14.007812 122.964844 C 14.960938 121.800781 15.972656 120.6875 17.039062 119.625 C 18.105469 118.558594 19.21875 117.546875 20.382812 116.59375 C 21.546875 115.636719 22.757812 114.742188 24.007812 113.90625 C 25.261719 113.066406 26.550781 112.292969 27.882812 111.582031 C 29.210938 110.871094 30.570312 110.230469 31.960938 109.652344 C 33.351562 109.074219 34.769531 108.566406 36.210938 108.128906 C 37.652344 107.691406 39.113281 107.324219 40.589844 107.027344 C 42.066406 106.730469 43.554688 106.507812 45.054688 106.359375 C 46.554688 106.210938 48.058594 106.132812 49.5625 106.132812 L 113.292969 106.132812 C 113.761719 106.132812 114.210938 106.222656 114.644531 106.402344 C 115.078125 106.582031 115.460938 106.835938 115.792969 107.167969 C 116.125 107.5 116.382812 107.882812 116.5625 108.316406 C 116.742188 108.75 116.832031 109.199219 116.832031 109.667969 C 116.832031 110.140625 116.742188 110.589844 116.5625 111.023438 C 116.382812 111.457031 116.125 111.839844 115.792969 112.171875 C 115.460938 112.503906 115.078125 112.757812 114.644531 112.9375 C 114.210938 113.117188 113.761719 113.207031 113.292969 113.207031 L 49.5625 113.207031 C 48.289062 113.210938 47.015625 113.273438 45.75 113.402344 C 44.480469 113.527344 43.21875 113.714844 41.96875 113.96875 C 40.71875 114.21875 39.484375 114.527344 38.265625 114.898438 C 37.046875 115.269531 35.847656 115.699219 34.671875 116.1875 C 33.492188 116.675781 32.34375 117.222656 31.21875 117.824219 C 30.09375 118.425781 29.003906 119.078125 27.945312 119.789062 C 26.882812 120.496094 25.863281 121.253906 24.875 122.0625 C 23.890625 122.871094 22.949219 123.726562 22.046875 124.625 C 21.144531 125.527344 20.289062 126.46875 19.480469 127.453125 C 18.671875 128.4375 17.914062 129.460938 17.203125 130.519531 C 16.496094 131.578125 15.839844 132.667969 15.238281 133.792969 C 14.636719 134.914062 14.089844 136.066406 13.601562 137.242188 C 13.113281 138.417969 12.683594 139.617188 12.3125 140.835938 C 11.941406 142.050781 11.628906 143.285156 11.378906 144.535156 C 11.128906 145.785156 10.941406 147.042969 10.8125 148.308594 C 10.6875 149.578125 10.621094 150.847656 10.617188 152.121094 L 10.617188 212.265625 C 10.613281 213.121094 10.644531 213.976562 10.714844 214.832031 C 10.785156 215.6875 10.894531 216.535156 11.042969 217.382812 C 11.191406 218.226562 11.378906 219.0625 11.605469 219.890625 C 11.828125 220.71875 12.089844 221.53125 12.390625 222.335938 C 12.6875 223.140625 13.023438 223.929688 13.390625 224.703125 C 13.761719 225.476562 14.167969 226.230469 14.605469 226.96875 C 15.046875 227.703125 15.515625 228.421875 16.023438 229.113281 C 16.527344 229.808594 17.0625 230.476562 17.625 231.121094 C 18.191406 231.769531 18.785156 232.386719 19.40625 232.976562 C 20.027344 233.570312 20.671875 234.132812 21.347656 234.664062 C 22.019531 235.195312 22.714844 235.699219 23.433594 236.167969 C 24.148438 236.636719 24.886719 237.074219 25.644531 237.476562 C 26.402344 237.878906 27.179688 238.246094 27.96875 238.578125 C 28.761719 238.910156 29.566406 239.207031 30.382812 239.464844 C 31.199219 239.722656 32.027344 239.945312 32.867188 240.128906 C 33.707031 240.3125 34.550781 240.457031 35.402344 240.566406 L 35.402344 152.121094 C 35.402344 151.652344 35.492188 151.203125 35.671875 150.769531 C 35.851562 150.335938 36.105469 149.953125 36.4375 149.621094 C 36.769531 149.289062 37.152344 149.035156 37.585938 148.855469 C 38.019531 148.675781 38.472656 148.585938 38.941406 148.585938 C 39.410156 148.585938 39.863281 148.675781 40.296875 148.855469 C 40.730469 149.035156 41.113281 149.289062 41.445312 149.621094 C 41.777344 149.953125 42.035156 150.335938 42.214844 150.769531 C 42.394531 151.203125 42.484375 151.652344 42.484375 152.121094 L 42.484375 244.105469 C 42.484375 244.574219 42.394531 245.023438 42.214844 245.457031 C 42.035156 245.890625 41.777344 246.273438 41.445312 246.605469 C 41.113281 246.9375 40.730469 247.191406 40.296875 247.371094 C 39.863281 247.550781 39.410156 247.640625 38.941406 247.640625 Z M 38.941406 247.640625 " fill-opacity="1" fill-rule="nonzero"/></g></svg>