<svg xmlns="http://www.w3.org/2000/svg" xmlns:xlink="http://www.w3.org/1999/xlink" width="500" zoomAndPan="magnify" viewBox="0 0 375 374.999991" height="500" preserveAspectRatio="xMidYMid meet" version="1.0"><defs><clipPath id="6db6cb08c3"><path d="M 26.484375 170 L 35 170 L 35 207 L 26.484375 207 Z M 26.484375 170 " clip-rule="nonzero"/></clipPath><clipPath id="4569860773"><path d="M 26.484375 2 L 348.234375 2 L 348.234375 375 L 26.484375 375 Z M 26.484375 2 " clip-rule="nonzero"/></clipPath></defs><g clip-path="url(#6db6cb08c3)"><path fill="#ffffb7" d="M 30.386719 206.824219 C 28.214844 206.824219 26.445312 205.042969 26.445312 202.871094 L 26.445312 174.71875 C 26.445312 172.523438 28.214844 170.765625 30.386719 170.765625 C 32.5625 170.765625 34.332031 172.523438 34.332031 174.71875 L 34.332031 202.871094 C 34.332031 205.042969 32.5625 206.824219 30.386719 206.824219 " fill-opacity="1" fill-rule="nonzero"/></g><g clip-path="url(#4569860773)"><path fill="#ffffb7" d="M 228.5625 367.101562 L 143.472656 367.101562 L 143.472656 235.320312 C 143.472656 226.203125 150.890625 218.769531 160.003906 218.769531 L 212.027344 218.769531 C 221.144531 218.769531 228.5625 226.203125 228.5625 235.320312 Z M 335.78125 114.273438 L 205.714844 9.84375 C 193.546875 0.0703125 175.992188 0.214844 163.976562 10.15625 L 38.410156 114.308594 C 30.8125 120.597656 26.445312 129.890625 26.445312 139.773438 L 26.445312 174.726562 C 26.445312 176.921875 28.207031 178.660156 30.390625 178.660156 C 32.554688 178.660156 34.332031 176.921875 34.332031 174.726562 L 34.332031 139.773438 C 34.332031 132.253906 37.652344 125.1875 43.445312 120.375 L 168.996094 16.25 C 178.15625 8.671875 191.511719 8.5625 200.78125 15.992188 L 330.859375 120.429688 C 336.839844 125.214844 340.269531 132.367188 340.269531 140.054688 L 340.269531 341.921875 C 340.269531 355.792969 328.992188 367.101562 315.105469 367.101562 L 236.441406 367.101562 L 236.441406 235.320312 C 236.441406 221.847656 225.492188 210.878906 212.027344 210.878906 L 160.003906 210.878906 C 146.539062 210.878906 135.605469 221.847656 135.605469 235.320312 L 135.605469 367.101562 L 59.476562 367.101562 C 45.613281 367.101562 34.332031 355.792969 34.332031 341.921875 L 34.332031 236.175781 C 34.332031 234.011719 32.554688 232.242188 30.390625 232.242188 C 28.207031 232.242188 26.445312 234.011719 26.445312 236.175781 L 26.445312 341.921875 C 26.445312 360.152344 41.265625 374.992188 59.476562 374.992188 L 315.105469 374.992188 C 333.335938 374.992188 348.148438 360.152344 348.148438 341.921875 L 348.148438 140.054688 C 348.148438 129.945312 343.632812 120.542969 335.78125 114.273438 " fill-opacity="1" fill-rule="nonzero"/></g><path fill="#ffffb7" d="M 321.1875 237.972656 C 319.011719 237.972656 317.242188 236.199219 317.242188 234.019531 L 317.242188 143.550781 C 317.242188 141.371094 319.011719 139.601562 321.1875 139.601562 C 323.359375 139.601562 325.128906 141.371094 325.128906 143.550781 L 325.128906 234.019531 C 325.128906 236.199219 323.359375 237.972656 321.1875 237.972656 " fill-opacity="1" fill-rule="nonzero"/></svg>