<svg xmlns="http://www.w3.org/2000/svg" xmlns:xlink="http://www.w3.org/1999/xlink" width="500" zoomAndPan="magnify" viewBox="0 0 375 374.999991" height="500" preserveAspectRatio="xMidYMid meet" version="1.0"><path fill="#ffffb7" d="M 187.515625 214.101562 C 185.402344 214.101562 183.695312 212.386719 183.695312 210.28125 L 183.695312 4.25 C 183.695312 2.140625 185.402344 0.429688 187.515625 0.429688 C 189.625 0.429688 191.335938 2.140625 191.335938 4.25 L 191.335938 210.28125 C 191.335938 212.386719 189.625 214.101562 187.515625 214.101562 " fill-opacity="1" fill-rule="nonzero"/><path fill="#ffffb7" d="M 256.503906 77.066406 C 255.523438 77.066406 254.546875 76.695312 253.800781 75.945312 L 187.515625 9.660156 L 121.222656 75.945312 C 119.734375 77.441406 117.308594 77.441406 115.820312 75.945312 C 114.324219 74.457031 114.324219 72.03125 115.820312 70.542969 L 184.808594 1.546875 C 186.304688 0.0507812 188.71875 0.0507812 190.21875 1.546875 L 259.210938 70.542969 C 260.699219 72.03125 260.699219 74.457031 259.210938 75.945312 C 258.460938 76.695312 257.480469 77.066406 256.503906 77.066406 " fill-opacity="1" fill-rule="nonzero"/><path fill="#ffffb7" d="M 325.496094 375 L 49.519531 375 C 47.402344 375 45.699219 373.292969 45.699219 371.179688 L 45.699219 123.210938 C 45.699219 121.101562 47.402344 119.386719 49.519531 119.386719 L 105.628906 119.386719 C 107.734375 119.386719 109.449219 121.101562 109.449219 123.210938 C 109.449219 125.324219 107.734375 127.03125 105.628906 127.03125 L 53.339844 127.03125 L 53.339844 367.359375 L 321.675781 367.359375 L 321.675781 127.03125 L 269.394531 127.03125 C 267.28125 127.03125 265.566406 125.324219 265.566406 123.210938 C 265.566406 121.101562 267.28125 119.386719 269.394531 119.386719 L 325.496094 119.386719 C 327.613281 119.386719 329.320312 121.101562 329.320312 123.210938 L 329.320312 371.179688 C 329.320312 373.292969 327.613281 375 325.496094 375 " fill-opacity="1" fill-rule="nonzero"/></svg>